<svg width="143.2346" height="28.361784" xmlns="http://www.w3.org/2000/svg">

 <metadata id="metadata6877">image/svg+xml</metadata>
 <g>
  <title>background</title>
  <rect fill="none" id="canvas_background" height="30.36178" width="145.2346" y="-1" x="-1"/>
 </g>
 <g>
  <title>Layer 1</title>
  <g id="layer1">
   <g id="g1068">
    <g id="g1667" transform="matrix(0.077044,0,0,0.077044,-36.967018,189.15051) ">
     <g fill="#000000" id="g1641">
      <g fill="#000000" id="g1460">
       <path fill="#ffffff" fill-rule="nonzero" stroke-width="0.965" stroke-linecap="round" stroke-linejoin="round" stroke-miterlimit="4" d="m487.09668,-2185.67948l147.37291,0l0,25.13541l-147.37291,0l0,-25.13541z" id="rect1450"/>
       <path fill="#ffffff" fill-rule="nonzero" stroke-width="0.965" stroke-linecap="round" stroke-linejoin="round" stroke-miterlimit="4" id="rect1452" d="m501.91335,-2197.58573l23.01875,0l0,68.26249l-23.01875,0l0,-68.26249z"/>
       <path fill="#ffffff" stroke-width="0.965" stroke-miterlimit="4" id="path1455" d="m598.48627,-2146.52112l0,-51.06461l20.90208,0l0,48.94795c0,32.19778 -22.4188,61.11874 -68.2625,61.11874l-48.68333,0l0,-28.04583l53.71041,0c28.21852,0 42.33334,-13.03384 42.33334,-30.95625z"/>
      </g>
     </g>
     <g fill="#000000" id="g1635">
      <path fill="#ffffff" stroke-width="0.965" stroke-miterlimit="4" d="m731.4543,-2139.27919l0,9.31132c0,9.48422 -6.18595,14.403 -14.59291,14.403l-65.87047,0l0,28.04583l65.3092,0c19.23302,0 34.6114,-12.99612 34.6114,-31.36748l0,-26.56659" id="path1483"/>
      <path fill="#ffffff" fill-rule="nonzero" stroke-width="0.965" stroke-linecap="round" stroke-linejoin="round" stroke-miterlimit="4" d="m660.36061,-2197.83792l119.73674,0l0,26.56659l-119.73674,0l0,-26.56659z" id="rect1485"/>
      <path fill="#ffffff" fill-rule="nonzero" stroke-width="0.965" stroke-linecap="round" stroke-linejoin="round" stroke-miterlimit="4" d="m651.00617,-2160.79437l137.69727,0l0,25.06988l-137.69727,0l0,-25.06988z" id="rect1487"/>
     </g>
     <g fill="#000000" id="g1630">
      <path fill="#ffffff" stroke-width="0.965" stroke-miterlimit="4" d="m923.0331,-2139.27919l0,9.31132c0,9.48422 -6.18595,14.403 -14.59291,14.403l-93.18542,0l0,28.04583l92.62415,0c19.23302,0 34.61141,-12.99612 34.61141,-31.36748l0,-41.90786" id="path1483-1"/>
      <path fill="#ffffff" fill-rule="nonzero" stroke-width="0.97023" stroke-linecap="round" stroke-linejoin="round" stroke-miterlimit="4" d="m803.29636,-2160.79437l139.19397,0l0,25.06988l-139.19397,0l0,-25.06988z" id="rect1487-3"/>
      <path fill="#ffffff" fill-rule="nonzero" stroke-width="0.97251" stroke-linecap="round" stroke-linejoin="round" stroke-miterlimit="4" d="m813.02496,-2197.83792l121.60764,0l0,26.56659l-121.60764,0l0,-26.56659z" id="rect1485-9"/>
     </g>
     <g fill="#000000" id="g1625">
      <path fill="#ffffff" fill-rule="nonzero" stroke-width="0.77779" stroke-linecap="round" stroke-linejoin="round" stroke-miterlimit="4" transform="translate(3335.334228515625,-1849.2359619140625) scale(-1,1) " d="m2279.10091,-319.41614l87.83696,0l0,25.06989l-87.83696,0l0,-25.06989z" id="rect1487-3-0"/>
      <path fill="#ffffff" stroke-width="0.965" stroke-miterlimit="4" d="m979.38692,-2198.01984l0,68.05198c0,9.48422 6.18595,14.403 14.59291,14.403l103.10339,0l0,28.04583l-102.54212,0c-19.23302,0 -34.61141,-12.99612 -34.61141,-31.36748l0,-79.13851" id="path1483-1-4"/>
      <path fill="#ffffff" fill-rule="nonzero" stroke-width="0.82152" stroke-linecap="round" stroke-linejoin="round" stroke-miterlimit="4" transform="translate(3335.334228515625,-1849.2359619140625) scale(-1,1) " d="m2238.19885,-310.94943l128.73903,0l0,19.77822l-128.73903,0l0,-19.77822z" id="rect1487-3-0-0"/>
      <path fill="#ffffff" fill-rule="nonzero" stroke-width="0.97072" stroke-linecap="round" stroke-linejoin="round" stroke-miterlimit="4" d="m1064.09796,-2197.57373l13.2833,0l0,29.27938l-13.2833,0l0,-29.27938z" id="rect1575"/>
      <path fill="#ffffff" fill-rule="nonzero" stroke-width="0.97072" stroke-linecap="round" stroke-linejoin="round" stroke-miterlimit="4" d="m1083.92935,-2197.57373l13.2833,0l0,29.27938l-13.2833,0l0,-29.27938z" id="rect1575-0"/>
     </g>
     <g fill="#000000" id="g1616">
      <path fill="#ffffff" fill-rule="nonzero" stroke-width="0.90072" stroke-linecap="round" stroke-linejoin="round" stroke-miterlimit="4" d="m1111.8999,-2112.919l116.2947,0l0,25.39998l-116.2947,0l0,-25.39998z" id="rect1593"/>
      <path fill="#ffffff" fill-rule="nonzero" stroke-width="0.73733" stroke-linecap="round" stroke-linejoin="round" stroke-miterlimit="4" d="m1123.74515,-2165.83569l77.93011,0l0,25.39998l-77.93011,0l0,-25.39998z" id="rect1593-1"/>
      <path fill="#ffffff" fill-rule="nonzero" stroke-width="0.965" stroke-linecap="round" stroke-linejoin="round" stroke-miterlimit="4" d="m1184.53833,-2165.83569l17.13691,0l0,65.35207l-17.13691,0l0,-65.35207z" id="rect1611"/>
     </g>
     <path fill="#ffffff" fill-rule="nonzero" stroke-width="0.965" stroke-linecap="round" stroke-linejoin="round" stroke-miterlimit="4" d="m1233.75086,-2157.89822l134.9375,0l0,27.51667l-134.9375,0l0,-27.51667z" id="rect1618"/>
    </g>
    <g id="g1683" transform="matrix(0.43061211,0,0,0.43061211,22.618514,115.88169) ">
     <path fill="#ffffff" fill-rule="nonzero" stroke-width="0.165" stroke-linecap="round" stroke-linejoin="round" stroke-miterlimit="4" id="path7449-8-3" d="m-18.97811,-252.51852c4.11955,0 7.45911,3.33956 7.45911,7.45911l0,7.70126c0.00001,4.11955 -3.33955,7.45911 -7.45911,7.45911l-33.2619,0l0,-6.61458l28.9106,0c1.98498,0 3.59412,-1.60915 3.59412,-3.59412l0,-2.07134c0,-1.98498 -1.60915,-3.59412 -3.59412,-3.59412l-9.35491,-0.00084l-12.11824,0c-4.11937,0 -7.4588,-3.40837 -7.4588,-7.6128l0,-7.85993c-0.00001,-4.20442 3.33942,-7.61279 7.4588,-7.61279l30.08002,0l0,6.75086l-25.7289,0c-1.98489,0 -3.59397,1.64231 -3.59397,3.66817l0,2.11402c0,2.02588 1.60909,3.80649 3.59397,3.80666l7.96705,0.00067l13.50628,0.00066z"/>
     <path fill="#ffffff" fill-rule="nonzero" stroke-width="0.165" stroke-linecap="round" stroke-linejoin="round" stroke-miterlimit="4" id="path7449-9-0" d="m-6.90878,-257.01953l0,6.63008l17.37568,0c1.48257,0 2.82981,1.19657 2.82981,2.66599l-19.75229,5.16971c-1.38833,0.372 -2.35386,1.63021 -2.35386,3.06751l0,2.16938c0,4.11955 3.33943,7.45949 7.45898,7.45949l15.78353,-0.00053c4.11848,-0.00007 7.45794,-3.33942 7.45794,-7.45897l0,-12.2437c0,-4.11955 -3.33942,-7.45898 -7.45897,-7.45898l-21.34082,0.00002zm20.33933,15.40319l0,2.60191c0,1.54662 -1.25373,2.80034 -2.80035,2.80034l-8.61859,0c-1.33506,0 -2.33134,-0.92697 -2.58228,-1.86345l14.00122,-3.5388z"/>
     <path fill="#ffffff" fill-rule="nonzero" stroke-width="0.165" stroke-linecap="round" stroke-linejoin="round" stroke-miterlimit="4" id="path7449-9-3" d="m36.07046,-250.34755l5.75835,0l0,-6.94531l-5.75468,0l0,-11.64167l-8.27225,0l0,11.70782l-3.43557,0l0,6.87916l3.4361,0l0,17.06269c-0.00001,1.93971 1.57244,3.51216 3.51215,3.51216l10.05123,0l0,-6.9488l-5.29533,-0.004l0,-13.62205z"/>
     <path fill="#ffffff" fill-rule="nonzero" stroke-width="0.165" stroke-linecap="round" stroke-linejoin="round" stroke-miterlimit="4" id="path7449-9-0-4" d="m74.76112,-229.90434l0,-6.63008l-19.34012,0c-1.48257,0 -2.8298,-1.19657 -2.8298,-2.66599l19.75228,-5.16971c1.38833,-0.372 2.35387,-1.63021 2.35387,-3.06751l0,-2.16938c0,-4.11955 -3.33943,-7.45949 -7.45898,-7.45949l-15.78353,0.00053c-4.11848,0.00007 -7.45795,3.33942 -7.45795,7.45897l0,12.2437c0,4.11955 3.33943,7.45898 7.45898,7.45898l23.30525,-0.00002zm-22.30376,-15.40319l0,-2.60191c0,-1.54662 1.25372,-2.80035 2.80035,-2.80035l8.61859,0c1.33506,0 2.33134,0.92698 2.58227,1.86346l-14.00121,3.5388z"/>
     <path fill="#ffffff" fill-rule="nonzero" stroke-width="0.165" stroke-linecap="round" stroke-linejoin="round" stroke-miterlimit="4" id="rect7599" d="m78.99875,-268.93454l8.00767,0l0,39.16183l-8.00766,0l-0.00001,-39.16183z"/>
     <path fill="#ffffff" fill-rule="nonzero" stroke-width="0.165" stroke-linecap="round" stroke-linejoin="round" stroke-miterlimit="4" id="rect7599-0" d="m91.30188,-268.93454l8.00766,0l0,39.16183l-8.00766,0l0,-39.16183z"/>
     <path fill="#ffffff" fill-rule="nonzero" stroke-width="0.165" stroke-linecap="round" stroke-linejoin="round" stroke-miterlimit="4" id="path7449-9-0-0" d="m104.08392,-257.01953l0,6.63008l17.37569,0c1.48257,0 2.82981,1.19657 2.82981,2.66599l-19.75229,5.16971c-1.38833,0.372 -2.35386,1.63022 -2.35386,3.06751l0,2.16938c0,4.11955 3.33942,7.45949 7.45898,7.45949l15.78353,-0.00053c4.11848,-0.00007 7.45794,-3.33942 7.45794,-7.45897l0,-12.2437c0,-4.11955 -3.33942,-7.45898 -7.45897,-7.45898l-21.34083,0.00002zm20.33934,15.40319l0,2.60191c0,1.54662 -1.25373,2.80035 -2.80035,2.80035l-8.61859,0c-1.33506,0 -2.33135,-0.92698 -2.58228,-1.86346l14.00122,-3.5388z"/>
     <path fill="#ffffff" stroke-width="0.165" stroke-miterlimit="4" id="path7641" d="m151.4986,-229.51161c-3.18706,0 -5.12337,-1.1036 -6.54843,-3.57188l-12.17084,-24.07708l8.99584,0l10.84791,20.96823l10.84792,-20.96823l8.99583,0l-12.17083,24.07708c-1.42506,2.46828 -3.36138,3.57188 -6.54844,3.57188l-1.12448,0l-1.12448,0z"/>
     <path fill="#ffffff" fill-rule="nonzero" stroke-width="0.165" stroke-linecap="round" stroke-linejoin="round" stroke-miterlimit="4" id="rect7599-01" d="m174.64563,-257.16058l8.00766,0l0,27.38787l-8.00766,0l0,-27.38787z"/>
     <circle fill="#ffffff" fill-rule="nonzero" stroke-width="0.165" stroke-linecap="round" stroke-linejoin="round" stroke-miterlimit="4" r="4.49792" cy="-264.50275" cx="178.68454" id="path7673"/>
     <path fill="#ffffff" fill-rule="nonzero" stroke-width="0.165" stroke-linecap="round" stroke-linejoin="round" stroke-miterlimit="4" id="path7449-9-0-4-2" d="m217.37154,-229.90433l0,-6.63008l-19.34013,0c-1.48257,0 -2.8298,-1.19657 -2.8298,-2.66599l19.75228,-5.16971c1.38833,-0.372 2.35387,-1.63021 2.35387,-3.06751l0,-2.16938c0,-4.11955 -3.33943,-7.45949 -7.45898,-7.45949l-15.78353,0.00053c-4.11848,0.00007 -7.45795,3.33942 -7.45795,7.45897l0,12.2437c0,4.11955 3.33943,7.45898 7.45898,7.45898l23.30526,-0.00002zm-22.30377,-15.40319l0,-2.60191c0,-1.54662 1.25372,-2.80035 2.80035,-2.80035l8.61859,0c1.33506,0 2.33134,0.92698 2.58227,1.86346l-14.00121,3.5388z"/>
     <g fill="#000000" id="g7728">
      <path fill="#ffffff" stroke-width="0.165" stroke-miterlimit="4" d="m235.38757,-229.51161c-3.18706,0 -5.12338,-1.1036 -6.54844,-3.57188l-12.17083,-24.07708l8.99583,0l10.84792,20.96823l7.47447,-20.96823l7.47449,0l-7.54063,23.74635c-1.09433,2.40213 -3.09679,3.90261 -6.28385,3.90261l-1.12448,0l-1.12448,0z" id="path7641-2"/>
      <path fill="#ffffff" stroke-width="0.165" stroke-miterlimit="4" d="m260.05996,-229.51161c3.18706,0 5.12338,-1.1036 6.54844,-3.57188l12.17084,-24.07708l-8.99584,0l-10.84792,20.96823l-7.47447,-20.96823l-7.47449,0l7.54063,23.74635c1.09433,2.40213 3.09679,3.90261 6.28385,3.90261l1.12448,0l1.12448,0z" id="path7641-2-6"/>
     </g>
    </g>
    <g id="g1016" transform="matrix(0.10979567,0,0,0.12215,-47.882349,190.79568) ">
     <path fill="#ffffff" stroke-width="0.26458px" id="path882" d="m226.07815,-1330.08258l91.29927,0c-26.52018,-8.79346 -66.57893,-43.77147 -81.38357,-64.91977c15.84062,38.93737 18.90421,55.96464 -9.9157,64.91977z"/>
     <path fill="#ffffff" stroke-width="0.265" stroke-miterlimit="4" id="path884" d="m372.56858,-1561.88544l35.17266,0l0,66.79065c-10.04831,-26.96941 -21.63317,-50.79349 -35.17266,-66.79065z"/>
     <path fill="#ffffff" stroke-width="0.26458px" id="path886" d="m338.89262,-1561.88544l19.83139,0c19.14698,27.93325 35.85653,54.074 49.01723,85.8737l0,19.8314c-20.38788,-41.35856 -41.56207,-81.59321 -68.84862,-105.7051z"/>
     <path fill="#ffffff" stroke-width="0.26458px" id="path899" d="m407.74124,-1421.51992l0,-17.4625c-27.46991,-59.93405 -66.36685,-101.37104 -99.2425,-122.99616l-41.01042,0c74.01562,26.31561 117.00148,80.69577 140.25292,140.45866z"/>
     <path fill="#ffffff" fill-rule="nonzero" stroke-width="0.265" stroke-linecap="round" stroke-linejoin="round" stroke-miterlimit="4" id="path901" d="m394.99731,-1350.11816c-22.41737,33.12613 -80.57773,26.95011 -131.28271,-27.27796c-40.56477,-43.38329 -54.4327,-101.76616 -30.63959,-135.53708c22.10579,-31.37602 88.11282,-17.96145 124.78874,21.86891c36.11138,39.21725 66.20865,97.98188 37.13356,140.94613z"/>
     <ellipse fill="#ffffff" fill-rule="nonzero" stroke-width="0.265" stroke-linecap="round" stroke-linejoin="round" stroke-miterlimit="4" ry="21.23456" rx="29.7471" cy="-1403.1407" cx="290.54664" id="path904"/>
     <ellipse fill="#ffffff" fill-rule="nonzero" stroke-width="0.265" stroke-linecap="round" stroke-linejoin="round" stroke-miterlimit="4" ry="21.23456" rx="29.7471" cy="-1391.07349" cx="354.71804" id="path904-5"/>
     <path fill="#ffffff" fill-rule="nonzero" stroke-width="0.30839" stroke-linecap="round" stroke-linejoin="round" stroke-miterlimit="4" id="path904-5-7" d="m278.37138,-1484.86136c-6.00747,-0.0336 -11.3991,1.86657 -15.19856,5.90144c-7.22728,7.6751 -5.45961,20.71584 2.21589,32.21871a31.81204,22.59754 0 0 1 8.48682,-0.82011a31.81204,22.59754 0 0 1 31.77067,21.77077c4.1403,-0.76466 7.8025,-2.59182 10.59057,-5.55263c9.3525,-9.932 3.4582,-28.66239 -10.62674,-41.6047c-8.36295,-7.68449 -18.45851,-11.86443 -27.23865,-11.91348z"/>
     <path fill="#ffffff" fill-rule="nonzero" stroke-width="0.26077" stroke-linecap="round" stroke-linejoin="round" stroke-miterlimit="4" id="path970" d="m344.43143,-1471.26788c-5.49633,-0.007 -10.42731,1.62386 -14.03894,5.03845c-7.04498,6.66064 -6.49331,20.07723 1.30845,32.09882a30.45113,25.58682 0 0 1 4.49533,-0.30334a30.45113,25.58682 0 0 1 30.05605,21.57232c6.1395,0.35253 11.59101,-1.11714 15.22336,-4.45812c8.88264,-8.17014 5.77076,-27.42583 -8.33541,-40.93187c-8.81636,-8.44128 -19.5483,-13.00422 -28.70884,-13.01626z"/>
    </g>
   </g>
  </g>
 </g>
</svg>