<?xml version="1.0" encoding="UTF-8" standalone="no"?>
<svg
   xmlns:dc="http://purl.org/dc/elements/1.1/"
   xmlns:cc="http://creativecommons.org/ns#"
   xmlns:rdf="http://www.w3.org/1999/02/22-rdf-syntax-ns#"
   xmlns:svg="http://www.w3.org/2000/svg"
   xmlns="http://www.w3.org/2000/svg"
   xmlns:sodipodi="http://sodipodi.sourceforge.net/DTD/sodipodi-0.dtd"
   xmlns:inkscape="http://www.inkscape.org/namespaces/inkscape"
   version="1.1"
   id="svg815"
   xml:space="preserve"
   width="708.84985"
   height="153.06532"
   viewBox="0 0 708.84984 153.06532"
   sodipodi:docname="nes.svg"
   inkscape:version="1.0.2 (e86c870879, 2021-01-15, custom)"><metadata
     id="metadata821"><rdf:RDF><cc:Work
         rdf:about=""><dc:format>image/svg+xml</dc:format><dc:type
           rdf:resource="http://purl.org/dc/dcmitype/StillImage" /><dc:title /></cc:Work></rdf:RDF></metadata><defs
     id="defs819"><clipPath
       clipPathUnits="userSpaceOnUse"
       id="clipPath831"><path
         d="M 0,595.276 H 841.89 V 0 H 0 Z"
         id="path829"
         inkscape:connector-curvature="0" /></clipPath></defs><sodipodi:namedview
     pagecolor="#ffffff"
     bordercolor="#666666"
     borderopacity="1"
     objecttolerance="10"
     gridtolerance="10"
     guidetolerance="10"
     inkscape:pageopacity="0"
     inkscape:pageshadow="2"
     inkscape:window-width="1920"
     inkscape:window-height="1058"
     id="namedview817"
     showgrid="false"
     inkscape:zoom="1.0684119"
     inkscape:cx="353.41119"
     inkscape:cy="78.891994"
     inkscape:window-x="-6"
     inkscape:window-y="-6"
     inkscape:window-maximized="1"
     inkscape:current-layer="g823"
     inkscape:document-rotation="0" /><g
     id="g823"
     inkscape:groupmode="layer"
     inkscape:label="nes"
     transform="matrix(1.3333333,0,0,-1.3333333,-207.84882,471.02399)"><g
       id="g1037"
       style="fill:#ffffff"><g
         id="g1005"
         style="fill:#ffffff"><g
           id="g974"
           style="fill:#ffffff"><path
             inkscape:connector-curvature="0"
             id="path833"
             style="fill:#ffffff;fill-opacity:1;fill-rule:nonzero;stroke:none"
             d="m 307.445,353.268 h 10.399 V 322.93 h -10.399 z" /><path
             inkscape:connector-curvature="0"
             id="path835"
             style="fill:#ffffff;fill-opacity:1;fill-rule:nonzero;stroke:none"
             d="M 291.528,353.268 H 260.54 V 322.93 h 9.976 v 20.362 c 0,1.497 0.847,2.344 1.914,2.344 h 16.974 c 1.277,0 2.124,-0.847 2.124,-2.344 V 322.93 h 9.756 v 20.362 c 0,0 1.277,9.976 -9.756,9.976" /><path
             inkscape:connector-curvature="0"
             id="path837"
             style="fill:#ffffff;fill-opacity:1;fill-rule:nonzero;stroke:none"
             d="M 355.188,353.268 H 323.996 V 322.93 h 9.766 v 20.362 c 0,1.497 0.846,2.344 2.117,2.344 h 16.981 c 1.27,0 2.328,-0.847 2.328,-2.344 V 322.93 h 9.552 v 20.362 c 0,0 1.27,9.976 -9.552,9.976" /><path
             inkscape:connector-curvature="0"
             id="path839"
             style="fill:#ffffff;fill-opacity:1;fill-rule:nonzero;stroke:none"
             d="M 479.332,353.268 H 448.564 V 322.93 h 9.762 v 20.362 c 0,1.497 0.841,2.344 2.121,2.344 h 16.551 c 1.494,0 2.334,-0.847 2.334,-2.344 V 322.93 h 9.77 v 20.362 c 0,0 1.273,9.976 -9.77,9.976" /><path
             inkscape:connector-curvature="0"
             id="path841"
             style="fill:#ffffff;fill-opacity:1;fill-rule:nonzero;stroke:none"
             d="m 368.354,345.422 h 11.026 c 0.853,0 1.914,-1.067 1.914,-2.334 V 322.93 h 10.609 v 20.158 c 0,1.267 1.06,2.334 2.337,2.334 h 10.61 v 7.846 h -36.496 v -7.846" /><path
             inkscape:connector-curvature="0"
             id="path843"
             style="fill:#ffffff;fill-opacity:1;fill-rule:nonzero;stroke:none"
             d="m 525.811,332.686 c 0,-1.268 -1.061,-1.911 -2.122,-1.911 h -16.763 c -1.274,0 -2.121,0.643 -2.121,1.911 v 10.606 c 0,1.063 0.847,2.13 2.121,2.13 h 16.763 c 1.061,0 2.122,-1.067 2.122,-2.13 v -10.606 m 9.548,7.008 v 3.598 c 0,0 1.707,9.976 -9.548,9.976 H 494.609 V 322.93 h 31.202 c 11.255,0 9.548,9.756 9.548,9.756 v 7.008" /><path
             inkscape:connector-curvature="0"
             id="path845"
             style="fill:#ffffff;fill-opacity:1;fill-rule:nonzero;stroke:none"
             d="m 573.136,332.686 c 0,-1.268 -1.061,-1.911 -2.334,-1.911 h -17.618 c -1.061,0 -1.901,0.643 -1.901,1.911 v 10.606 c 0,1.063 0.84,2.13 1.901,2.13 h 17.618 c 1.273,0 2.334,-1.067 2.334,-2.13 v -10.606 m 9.555,4.46 v 6.146 c 0,0 1.694,9.976 -9.555,9.976 h -9.976 -1.914 -9.963 c -11.043,0 -9.975,-9.976 -9.975,-9.976 v -10.606 c 0,0 -1.068,-9.756 9.975,-9.756 h 9.963 1.914 9.976 c 11.249,0 9.555,9.756 9.555,9.756 v 4.46" /><path
             inkscape:connector-curvature="0"
             id="path847"
             style="fill:#ffffff;fill-opacity:1;fill-rule:nonzero;stroke:none"
             d="m 408.888,333.109 c 0,0 -1.491,-10.179 9.756,-10.179 h 23.772 v 7.845 h -22.502 c -1.27,0 -2.118,1.057 -2.118,2.334 0,1.27 0.848,1.907 2.118,1.907 h 20.795 v 5.735 h -20.795 c -1.27,0 -2.118,1.06 -2.118,2.337 0,1.267 0.848,2.548 2.118,2.548 h 22.502 v 7.632 h -33.528 v -20.159" /><path
             inkscape:connector-curvature="0"
             id="path849"
             style="fill:#ffffff;fill-opacity:1;fill-rule:nonzero;stroke:none"
             d="m 226.802,310.617 h -30.779 v -30.138 h 9.557 v 20.162 c 0,1.277 1.057,2.337 2.333,2.337 h 16.551 c 1.27,0 2.338,-1.06 2.338,-2.337 v -20.162 h 9.545 v 20.162 c 0,0 1.277,9.976 -9.545,9.976" /><path
             inkscape:connector-curvature="0"
             id="path851"
             style="fill:#ffffff;fill-opacity:1;fill-rule:nonzero;stroke:none"
             d="m 492.709,310.617 h -30.781 v -30.138 h 9.761 v 20.162 c 0,1.277 1.068,2.337 2.128,2.337 h 16.558 c 1.267,0 2.334,-1.06 2.334,-2.337 v -20.162 h 9.542 v 20.162 c 0,0 1.273,9.976 -9.542,9.976" /><path
             inkscape:connector-curvature="0"
             id="path853"
             style="fill:#ffffff;fill-opacity:1;fill-rule:nonzero;stroke:none"
             d="m 637.652,310.617 h -30.775 v -30.138 h 9.557 v 20.162 c 0,1.277 1.052,2.337 2.334,2.337 h 16.55 c 1.267,0 2.334,-1.06 2.334,-2.337 v -20.162 h 9.549 v 20.162 c 0,0 1.267,9.976 -9.549,9.976" /><path
             inkscape:connector-curvature="0"
             id="path855"
             style="fill:#ffffff;fill-opacity:1;fill-rule:nonzero;stroke:none"
             d="m 240.595,302.978 h 10.609 c 1.061,0 2.338,-1.06 2.338,-2.337 v -20.162 h 10.179 v 20.162 c 0,1.277 1.067,2.337 2.337,2.337 h 10.609 v 7.639 h -36.072 v -7.639" /><path
             inkscape:connector-curvature="0"
             id="path857"
             style="fill:#ffffff;fill-opacity:1;fill-rule:nonzero;stroke:none"
             d="m 651.229,310.617 v -7.639 h 10.616 c 1.266,0 2.334,-1.06 2.334,-2.337 v -20.162 h 10.616 v 20.162 c 0,1.277 0.84,2.337 2.113,2.337 h 10.616 v 7.639 h -36.295" /><path
             inkscape:connector-curvature="0"
             id="path859"
             style="fill:#ffffff;fill-opacity:1;fill-rule:nonzero;stroke:none"
             d="m 361.772,302.978 h 10.61 c 1.27,0 2.337,-1.06 2.337,-2.337 v -20.162 h 10.602 v 20.162 c 0,1.277 1.068,2.337 2.345,2.337 h 10.602 v 7.639 h -36.496 v -7.639" /><path
             inkscape:connector-curvature="0"
             id="path861"
             style="fill:#ffffff;fill-opacity:1;fill-rule:nonzero;stroke:none"
             d="m 445.383,310.617 h 10.184 V 280.48 h -10.184 z" /><path
             inkscape:connector-curvature="0"
             id="path863"
             style="fill:#ffffff;fill-opacity:1;fill-rule:nonzero;stroke:none"
             d="m 429.039,295.756 h -17.181 v 5.308 c 0,0.854 1.271,1.914 1.904,1.914 h 12.943 c 1.481,0 2.334,-1.06 2.334,-1.914 v -5.308 m -0.213,14.861 h -16.764 c -10.823,0 -9.969,-9.976 -9.969,-9.976 v -20.162 h 9.765 v 7.635 h 17.181 v -7.635 h 9.756 v 20.162 c 0,0 1.273,9.976 -9.969,9.976" /><path
             inkscape:connector-curvature="0"
             id="path865"
             style="fill:#ffffff;fill-opacity:1;fill-rule:nonzero;stroke:none"
             d="m 348.188,298.09 c 0,-1.48 -0.632,-2.334 -1.91,-2.334 h -14.007 c -0.633,0 -1.48,0.854 -1.48,2.334 v 2.974 c 0,1.277 0.847,2.337 2.117,2.337 h 13.37 c 1.278,0 1.91,-0.63 1.91,-2.337 v -2.974 m -0.209,12.527 h -27.164 v -30.138 h 9.976 v 5.735 c 0,1.273 0.847,1.9 2.117,1.9 h 13.37 c 0.634,0 1.91,-1.06 1.91,-1.9 v -5.735 h 9.546 v 4.662 c 0,0 0.854,4.26 -3.604,7.228 2.971,2.12 4.035,5.295 4.248,7.215 0.21,0.847 0.21,1.48 0.21,1.48 0,0 0,9.553 -10.609,9.553" /><path
             inkscape:connector-curvature="0"
             id="path867"
             style="fill:#ffffff;fill-opacity:1;fill-rule:nonzero;stroke:none"
             d="m 155.914,290.455 c 0,0 -1.058,-9.976 9.979,-9.976 h 23.769 v 7.635 h -22.075 c -1.484,0 -2.761,1.287 -2.761,2.548 0,1.486 1.067,2.34 2.761,2.34 h 20.805 v 5.302 h -21.229 c -1.27,0 -2.337,1.06 -2.337,2.337 0,1.277 1.067,2.337 2.337,2.337 h 22.499 v 7.639 h -33.748 v -20.162" /><path
             inkscape:connector-curvature="0"
             id="path869"
             style="fill:#ffffff;fill-opacity:1;fill-rule:nonzero;stroke:none"
             d="m 281.129,290.455 c 0,0 -1.491,-9.976 9.552,-9.976 h 23.769 v 7.635 h -22.075 c -1.491,0 -2.761,1.287 -2.761,2.548 0,1.486 1.27,2.34 2.761,2.34 h 20.798 v 5.302 h -20.798 c -1.491,0 -2.761,1.06 -2.761,2.337 0,1.277 1.27,2.337 2.761,2.337 h 22.075 v 7.639 h -33.321 v -20.162" /><path
             inkscape:connector-curvature="0"
             id="path871"
             style="fill:#ffffff;fill-opacity:1;fill-rule:nonzero;stroke:none"
             d="m 567.194,290.455 c 0,0 -1.067,-9.976 9.763,-9.976 h 23.979 v 7.635 H 578.65 c -1.273,0 -2.546,1.287 -2.546,2.548 0,1.486 0.853,2.34 2.339,2.34 h 20.792 v 5.302 h -20.792 c -1.486,0 -2.339,1.06 -2.339,2.337 0,1.277 0.853,2.337 2.339,2.337 h 22.493 v 7.639 h -33.742 v -20.162" /><path
             inkscape:connector-curvature="0"
             id="path873"
             style="fill:#ffffff;fill-opacity:1;fill-rule:nonzero;stroke:none"
             d="m 551.35,310.577 h -42.664 v -30.132 h 8.916 v 20.156 c 0,1.27 1.06,2.334 2.334,2.334 h 7.209 c 1.279,0 2.346,-1.064 2.346,-2.334 v -20.156 h 9.97 v 20.156 c 0,1.27 0.853,2.334 2.334,2.334 h 7.642 c 0.846,0 1.913,-1.064 1.913,-2.334 l 0.414,-20.156 h 9.549 v 20.156 c 0,0 1.273,9.976 -9.963,9.976" /><path
             inkscape:connector-curvature="0"
             id="path875"
             style="fill:#ffffff;fill-opacity:1;fill-rule:nonzero;stroke:none"
             d="m 415.673,260.961 h 10.819 c 0.84,0 1.907,-1.067 1.907,-2.334 v -20.158 h 10.617 l 0.42,20.158 c 0,1.267 0.632,2.334 1.913,2.334 h 10.616 v 7.635 h -36.292 v -7.635" /><path
             inkscape:connector-curvature="0"
             id="path877"
             style="fill:#ffffff;fill-opacity:1;fill-rule:nonzero;stroke:none"
             d="m 538.334,268.596 h -42.651 v -30.127 h 8.909 v 20.158 c 0,1.267 1.06,2.334 2.334,2.334 h 7.215 c 1.267,0 2.327,-1.067 2.327,-2.334 v -20.158 h 9.975 v 20.158 c 0,1.267 0.848,2.334 2.341,2.334 h 7.636 c 0.853,0 1.914,-1.067 1.914,-2.334 l 0.426,-20.158 h 9.55 v 20.158 c 0,0 1.266,9.969 -9.976,9.969" /><path
             inkscape:connector-curvature="0"
             id="path879"
             style="fill:#ffffff;fill-opacity:1;fill-rule:nonzero;stroke:none"
             d="m 371.958,268.596 h -9.129 v -11.249 c 0,-1.261 -1.27,-2.327 -2.327,-2.327 h -13.59 c -1.27,0 -2.334,1.066 -2.334,2.327 v 11.249 h -9.546 V 257.56 c 0,0 -1.06,-10.176 9.976,-10.176 h 3.18 v -8.915 h 10.614 v 8.915 h 3.604 c 11.036,0 9.552,9.963 9.552,9.963 v 11.249" /><path
             inkscape:connector-curvature="0"
             id="path881"
             style="fill:#ffffff;fill-opacity:1;fill-rule:nonzero;stroke:none"
             d="m 455.992,248.438 c 0,0 -1.486,-9.969 9.55,-9.969 h 23.766 v 7.641 h -22.066 c -1.487,0 -2.767,1.061 -2.767,2.548 0,1.48 1.28,2.113 2.767,2.113 h 20.792 v 5.315 h -20.792 c -1.487,0 -2.767,1.261 -2.767,2.541 0,1.267 1.28,2.334 2.767,2.334 h 22.066 v 7.635 h -33.316 v -20.158" /><path
             inkscape:connector-curvature="0"
             id="path883"
             style="fill:#ffffff;fill-opacity:1;fill-rule:nonzero;stroke:none"
             d="m 402.516,256.3 h -14.224 c -1.693,0 -2.75,0.627 -2.75,2.107 0,1.286 1.057,2.554 2.327,2.554 h 24.193 v 7.635 h -26.52 c -4.885,0 -9.123,-4.028 -9.123,-8.702 0,-6.576 4.238,-9.123 9.97,-9.123 h 14.216 c 1.488,0 2.974,-0.633 2.974,-2.113 0,-1.274 -1.063,-2.548 -2.34,-2.548 h -24.82 v -7.641 h 27.16 c 4.455,0 9.126,3.607 9.126,8.702 0,6.147 -4.885,9.129 -10.189,9.129" /><path
             inkscape:connector-curvature="0"
             id="path885"
             style="fill:#ffffff;fill-opacity:1;fill-rule:nonzero;stroke:none"
             d="m 321.662,256.3 h -13.793 c -1.701,0 -2.971,0.627 -2.971,2.107 0,1.286 1.27,2.554 2.547,2.554 h 24.193 v 7.635 h -26.53 c -5.305,0 -9.552,-4.028 -9.552,-8.702 0,-6.576 4.671,-9.123 10.399,-9.123 h 13.793 c 1.701,0 2.971,-0.633 2.971,-2.113 0,-1.274 -1.27,-2.548 -2.547,-2.548 h -24.616 v -7.641 h 27.163 c 4.882,0 9.343,3.607 9.343,8.702 0,6.147 -4.672,9.129 -10.4,9.129" /><path
             inkscape:connector-curvature="0"
             id="path887"
             style="fill:#ffffff;fill-opacity:1;fill-rule:nonzero;stroke:none"
             d="m 561.26,264.835 c 1.16,0 2.186,0.08 2.186,1.467 0,1.114 -1.013,1.314 -1.96,1.314 h -1.854 v -2.781 h 1.628 m -1.628,-5.048 h -1.361 v 8.989 h 3.421 c 2.128,0 3.175,-0.78 3.175,-2.56 0,-1.608 -1.008,-2.321 -2.328,-2.468 l 2.562,-3.961 h -1.535 l -2.367,3.895 h -1.567 v -3.895 m 1.654,-2.007 c 3.521,0 6.308,2.767 6.308,6.522 0,3.694 -2.787,6.474 -6.308,6.474 -3.574,0 -6.362,-2.78 -6.362,-6.474 0,-3.755 2.788,-6.522 6.362,-6.522 m -7.935,6.522 c 0,4.474 3.64,7.775 7.935,7.775 4.241,0 7.875,-3.301 7.875,-7.775 0,-4.515 -3.634,-7.823 -7.875,-7.823 -4.295,0 -7.935,3.308 -7.935,7.823" /></g></g></g></g></svg>
